<svg width="48" height="48" viewBox="0 0 48 48" fill="none" xmlns="http://www.w3.org/2000/svg">
  <path d="M24 4C12.95 4 4 12.95 4 24C4 35.05 12.95 44 24 44C35.05 44 44 35.05 44 24C44 12.95 35.05 4 24 4Z" fill="#005A49"/>
  <path d="M24 8C15.16 8 8 15.16 8 24C8 32.84 15.16 40 24 40C32.84 40 40 32.84 40 24C40 15.16 32.84 8 24 8ZM24 36C17.37 36 12 30.63 12 24C12 17.37 17.37 12 24 12C30.63 12 36 17.37 36 24C36 30.63 30.63 36 24 36Z" fill="#00C49A"/>
  <path d="M32 24C32 28.42 28.42 32 24 32C19.58 32 16 28.42 16 24C16 19.58 19.58 16 24 16C28.42 16 32 19.58 32 24Z" fill="#4ADCBE"/>
  <path d="M30 24C30 27.31 27.31 30 24 30C20.69 30 18 27.31 18 24C18 20.69 20.69 18 24 18C27.31 18 30 20.69 30 24Z" fill="#005A49"/>
  <path d="M27 24C27 25.66 25.66 27 24 27C22.34 27 21 25.66 21 24C21 22.34 22.34 21 24 21C25.66 21 27 22.34 27 24Z" fill="#00C49A"/>
  <path d="M24 4L30 10L18 10L24 4Z" fill="#00C49A"/>
  <path d="M24 44L18 38L30 38L24 44Z" fill="#00C49A"/>
  <path d="M4 24L10 18L10 30L4 24Z" fill="#00C49A"/>
  <path d="M44 24L38 30L38 18L44 24Z" fill="#00C49A"/>
</svg>
