<svg width="1200" height="760" viewBox="0 0 1200 760" fill="none" xmlns="http://www.w3.org/2000/svg">
  <rect width="1200" height="760" rx="32" fill="#F8FAFA"/>
  <rect x="34" y="34" width="1132" height="692" rx="28" fill="#FFFFFF" stroke="#D9E8E4" stroke-width="2"/>
  <rect x="34" y="34" width="1132" height="78" rx="28" fill="#FFFFFF"/>
  <path d="M34 100H1166" stroke="#D9E8E4" stroke-width="2"/>
  <rect x="72" y="64" width="28" height="4" rx="2" fill="#00BCA2"/>
  <rect x="72" y="76" width="28" height="4" rx="2" fill="#00BCA2"/>
  <rect x="72" y="88" width="28" height="4" rx="2" fill="#00BCA2"/>
  <text x="130" y="85" fill="#12352F" font-family="Inter, Arial, sans-serif" font-size="28" font-weight="800">Create Widget</text>
  <rect x="848" y="54" width="74" height="38" rx="8" fill="#E8F7F4" stroke="#00BCA2"/>
  <text x="875" y="79" fill="#007C66" font-family="Inter, Arial, sans-serif" font-size="18" font-weight="700">✎</text>
  <rect x="938" y="54" width="74" height="38" rx="8" fill="#FFFFFF" stroke="#D9E8E4"/>
  <text x="965" y="79" fill="#60736F" font-family="Inter, Arial, sans-serif" font-size="18" font-weight="700">◉</text>
  <rect x="1048" y="54" width="72" height="38" rx="8" fill="#E8F7F4" stroke="#00BCA2"/>
  <text x="1074" y="80" fill="#00BCA2" font-family="Inter, Arial, sans-serif" font-size="18" font-weight="700">💾</text>

  <rect x="64" y="144" width="300" height="538" rx="20" fill="#FFFFFF" stroke="#D9E8E4" stroke-width="2"/>
  <text x="92" y="188" fill="#12352F" font-family="Inter, Arial, sans-serif" font-size="24" font-weight="800">Building blocks</text>
  <text x="92" y="222" fill="#60736F" font-family="Inter, Arial, sans-serif" font-size="16">Drag blocks into the widget canvas.</text>
  <g>
    <rect x="92" y="262" width="110" height="88" rx="14" fill="#F8FAFA" stroke="#D9E8E4"/>
    <circle cx="147" cy="294" r="14" fill="#E8F7F4"/>
    <text x="127" y="332" fill="#12352F" font-family="Inter, Arial, sans-serif" font-size="16" font-weight="700">Text</text>
  </g>
  <g>
    <rect x="222" y="262" width="110" height="88" rx="14" fill="#F8FAFA" stroke="#D9E8E4"/>
    <circle cx="277" cy="294" r="14" fill="#E8F7F4"/>
    <text x="255" y="332" fill="#12352F" font-family="Inter, Arial, sans-serif" font-size="16" font-weight="700">Chart</text>
  </g>
  <g>
    <rect x="92" y="370" width="110" height="88" rx="14" fill="#F8FAFA" stroke="#D9E8E4"/>
    <circle cx="147" cy="402" r="14" fill="#E8F7F4"/>
    <text x="123" y="440" fill="#12352F" font-family="Inter, Arial, sans-serif" font-size="16" font-weight="700">Input</text>
  </g>
  <g>
    <rect x="222" y="370" width="110" height="88" rx="14" fill="#F8FAFA" stroke="#D9E8E4"/>
    <circle cx="277" cy="402" r="14" fill="#E8F7F4"/>
    <text x="244" y="440" fill="#12352F" font-family="Inter, Arial, sans-serif" font-size="16" font-weight="700">Layout</text>
  </g>
  <rect x="92" y="506" width="240" height="116" rx="16" fill="#E8F7F4" stroke="#00BCA2" stroke-opacity="0.45"/>
  <text x="116" y="546" fill="#005A49" font-family="Inter, Arial, sans-serif" font-size="18" font-weight="800">Tip</text>
  <text x="116" y="578" fill="#31524B" font-family="Inter, Arial, sans-serif" font-size="16">Start with one useful block,</text>
  <text x="116" y="602" fill="#31524B" font-family="Inter, Arial, sans-serif" font-size="16">then save and reuse it.</text>

  <rect x="400" y="144" width="736" height="538" rx="20" fill="#F8FAFA" stroke="#D9E8E4" stroke-width="2"/>
  <text x="436" y="190" fill="#12352F" font-family="Inter, Arial, sans-serif" font-size="24" font-weight="800">Daily Operations widget</text>
  <text x="436" y="224" fill="#60736F" font-family="Inter, Arial, sans-serif" font-size="16">Orders, support, system status, and handoff notes in one reusable card.</text>
  <rect x="436" y="270" width="300" height="124" rx="18" fill="#FFFFFF" stroke="#D9E8E4"/>
  <text x="464" y="314" fill="#12352F" font-family="Inter, Arial, sans-serif" font-size="18" font-weight="800">Orders today</text>
  <rect x="464" y="338" width="220" height="14" rx="7" fill="#E8F7F4"/>
  <rect x="464" y="362" width="160" height="14" rx="7" fill="#D9E8E4"/>
  <rect x="772" y="270" width="328" height="124" rx="18" fill="#FFFFFF" stroke="#D9E8E4"/>
  <text x="800" y="314" fill="#12352F" font-family="Inter, Arial, sans-serif" font-size="18" font-weight="800">Support tickets</text>
  <rect x="800" y="342" width="56" height="34" rx="8" fill="#00BCA2" opacity="0.88"/>
  <rect x="866" y="324" width="56" height="52" rx="8" fill="#00BCA2" opacity="0.64"/>
  <rect x="932" y="352" width="56" height="24" rx="8" fill="#00BCA2" opacity="0.4"/>
  <rect x="436" y="430" width="664" height="170" rx="18" fill="#FFFFFF" stroke="#D9E8E4"/>
  <text x="464" y="474" fill="#12352F" font-family="Inter, Arial, sans-serif" font-size="18" font-weight="800">Team handoff</text>
  <rect x="464" y="502" width="580" height="16" rx="8" fill="#E8F7F4"/>
  <rect x="464" y="532" width="500" height="16" rx="8" fill="#D9E8E4"/>
  <rect x="464" y="562" width="420" height="16" rx="8" fill="#D9E8E4"/>
</svg>
